<?xml version="1.0" encoding="UTF-8" standalone="no"?>
<!-- Created with Inkscape (http://www.inkscape.org/) -->

<svg
   xmlns:dc="http://purl.org/dc/elements/1.1/"
   xmlns:cc="http://creativecommons.org/ns#"
   xmlns:rdf="http://www.w3.org/1999/02/22-rdf-syntax-ns#"
   xmlns:svg="http://www.w3.org/2000/svg"
   xmlns="http://www.w3.org/2000/svg"
   xmlns:sodipodi="http://sodipodi.sourceforge.net/DTD/sodipodi-0.dtd"
   xmlns:inkscape="http://www.inkscape.org/namespaces/inkscape"
   width="1434.6267"
   height="318.5625"
   id="svg2"
   version="1.1"
   inkscape:version="0.48.2 r9819"
   sodipodi:docname="klout.svg">
  <defs
     id="defs4" />
  <sodipodi:namedview
     id="base"
     pagecolor="#ffffff"
     bordercolor="#666666"
     borderopacity="1.0"
     inkscape:pageopacity="0.0"
     inkscape:pageshadow="2"
     inkscape:zoom="0.7"
     inkscape:cx="832.18051"
     inkscape:cy="201.21628"
     inkscape:document-units="px"
     inkscape:current-layer="layer1"
     showgrid="false"
     fit-margin-top="10"
     fit-margin-left="10"
     fit-margin-right="10"
     fit-margin-bottom="10"
     inkscape:window-width="1366"
     inkscape:window-height="719"
     inkscape:window-x="0"
     inkscape:window-y="25"
     inkscape:window-maximized="1" />
  <metadata
     id="metadata7">
    <rdf:RDF>
      <cc:Work
         rdf:about="">
        <dc:format>image/svg+xml</dc:format>
        <dc:type
           rdf:resource="http://purl.org/dc/dcmitype/StillImage" />
        <dc:title></dc:title>
      </cc:Work>
    </rdf:RDF>
  </metadata>
  <g
     inkscape:label="Layer 1"
     inkscape:groupmode="layer"
     id="layer1"
     transform="translate(1235.2142,-214.86665)">
    <rect
       style="fill:#ffffff;fill-opacity:1;fill-rule:nonzero;stroke:none"
       id="rect3114"
       width="1438.5714"
       height="325.71429"
       x="0"
       y="-1.4375001"
       transform="translate(-1235.2142,214.86665)" />
    <rect
       style="fill:#e89d7c;fill-opacity:1;fill-rule:nonzero;stroke:none"
       id="rect3014"
       width="133.34013"
       height="197.9899"
       x="-1193.033"
       y="246.03638" />
    <path
       style="fill:#d23b0f"
       d="m -1225.2142,224.86665 0,117.6875 0,117.71875 133.5312,0 133.56247,0 62.9375,30.96874 c 34.6113,17.0397 63.19745,31.2647 63.53125,31.5938 0.3338,0.329 0.7058,0.5937 0.8125,0.5937 0.1073,0 0.1875,-67.17409 0.1875,-149.28124 l 0,-149.28125 -197.28122,0 -197.2812,0 z m 173.1562,33.96875 22.8438,0.125 22.875,0.125 0.094,31.65625 c 0.092,24.6354 0.2433,31.74918 0.6875,32.03125 0.6937,0.44058 29.67097,0.44059 30.78117,0 0.4328,-0.17176 10.12175,-13.95097 21.53125,-30.625 11.4095,-16.67404 21.22935,-30.98946 21.84375,-31.8125 l 1.125,-1.5 27.65625,0.125 c 21.102,0.0904 27.65625,0.26765 27.65625,0.6875 0,0.30255 -13.23745,18.99203 -29.40625,41.53125 -16.1687,22.53923 -29.46425,41.28665 -29.53125,41.6875 -0.0668,0.40085 14.3721,20.04116 32.0625,43.65625 17.6904,23.6151 32.086,43.17836 32,43.4375 -0.1044,0.31347 -9.63195,0.4838 -28.46875,0.5625 l -28.3125,0.125 -13.46875,-18.90625 c -7.3972,-10.399 -18.09685,-25.42395 -23.78125,-33.40625 l -10.3125,-14.53125 -15.875,0 -15.84372,0 -0.2187,33.3125 -0.2188,33.3125 -22.5625,0.0937 c -12.3979,0.0655 -22.6729,-0.0167 -22.8437,-0.1875 -0.1707,-0.17078 -0.3125,-38.82913 -0.3125,-85.90625 l 0,-85.59375 z m -104.25,0.0312 c 20.4429,-0.005 26.6226,0.11855 27.2188,0.5625 0.4242,0.3158 10.4728,14.72559 22.3125,32.03125 l 21.5,31.46875 9.4375,0.125 c 7.2268,0.095 9.5757,0.27652 9.9687,0.75 0.3641,0.43878 0.46,6.18822 0.375,19.84375 l -0.125,19.25 -9.75,0.21875 c -6.5691,0.15429 -9.9053,0.39958 -10.125,0.75 -0.1798,0.28689 -10.8531,15.34503 -23.7187,33.4375 l -23.375,32.875 -28.1875,0 c -15.493,0 -28.1563,-0.14364 -28.1563,-0.34375 0,-0.20011 14.4716,-19.68633 32.1563,-43.28125 17.6846,-23.59492 32.1562,-43.18682 32.1562,-43.53125 0,-0.45588 -55.5849,-78.42587 -58.9687,-82.71875 -0.3458,-0.43868 -0.2873,-0.73076 0.1875,-1.03125 0.3754,-0.23749 12.0473,-0.40225 27.0937,-0.40625 z"
       id="path3092"
       inkscape:connector-curvature="0" />
    <g
       id="g3004"
       transform="matrix(0.45934066,0,0,0.45934066,-701.47871,84.950388)">
      <path
         style="fill:#5d5155"
         d="M 824,769.42983 C 759.3301,764.28636 723.2414,750.96759 695.8734,722.14388 675.818,701.02162 665.3135,677.83353 659.796,642.50504 658.1633,632.05069 658,622.54888 658,538.00504 c 0,-102.61128 -0.012,-102.38702 6.5146,-127.09782 13.846,-52.4268 51.9161,-85.91911 111.2295,-97.8544 6.7407,-1.3564 22.6059,-3.69239 35.2559,-5.19107 20.9618,-2.4834 26.1459,-2.72487 58.5,-2.72487 32.3541,0 37.5382,0.24147 58.5,2.72487 38.2777,4.53487 58.2725,9.51527 78.6571,19.59228 14.7612,7.29709 23.3932,13.44169 34.3803,24.4731 22.2223,22.31214 33.049,46.40299 38.6843,86.07791 0.9633,6.78197 1.2783,31.67317 1.2783,101 0,83.6001 -0.1641,93.04999 -1.7969,103.5 -5.6064,35.8813 -16.415,59.40465 -37.1479,80.84767 -27.0618,27.98864 -63.7189,41.1446 -128.5051,46.11952 -15.3428,1.17817 -74.5562,1.15014 -89.5501,-0.0424 z M 896.1048,664.5029 c 16.6627,-1.29493 25.7492,-3.30883 34.3557,-7.6145 12.303,-6.15493 19.2414,-16.57482 23.3581,-35.0786 2.1339,-9.59114 2.1814,-11.41703 2.1814,-83.80476 0,-72.68662 -0.039,-74.17659 -2.2109,-83.94951 -5.2232,-23.50494 -16.4747,-35.41299 -37.7891,-39.99415 -12.7595,-2.74244 -44.3783,-4.04898 -65.8322,-2.72031 -21.7879,1.34935 -30.3318,2.88232 -39.2036,7.03393 -14.6933,6.8758 -22.1207,18.40535 -26.1742,40.63004 -1.3737,7.53119 -1.7085,19.11849 -2.0517,71 -0.4428,66.92937 0.1288,79.80652 4.2663,96.11697 3.0363,11.96933 6.4495,18.19926 13.5956,24.81535 8.9543,8.29006 19.4707,11.74858 41.1169,13.52211 14.0087,1.14776 39.9114,1.16844 54.3877,0.0434 z M 1289.5,769.44755 c -74.0032,-5.56674 -111.9134,-21.63393 -132.2743,-56.06081 -4.5266,-7.65369 -9.0413,-21.23123 -11.122,-33.44827 C 1142.0141,655.92607 1142,655.23739 1142,479.00504 l 0,-170 60,0 60,0 0.5437,158.5 c 0.5014,146.18467 0.6782,158.99831 2.2765,164.91337 4.7385,17.53767 15.071,26.79494 34.3355,30.76244 11.4816,2.36461 70.4204,2.41258 81.5361,0.0664 14.757,-3.11481 23.547,-9.36554 28.2894,-20.11713 5.0948,-11.55045 4.8744,-4.50907 5.465,-174.62504 L 1415,309.00504 l 59.3879,-0.25799 c 44.1756,-0.1919 59.7487,0.0414 60.7965,0.911 1.2037,0.99898 1.3553,25.1777 1.0423,166.25799 -0.4035,181.92514 -0.1422,174.11324 -6.693,200.10031 -12.4474,49.37871 -43.3776,76.52019 -100.1863,87.91417 -25.1397,5.04221 -36.1376,5.84534 -83.8474,6.12306 -24.475,0.14247 -49.675,-0.13024 -56,-0.60603 z m -1431.53769,-3.19251 c -0.26121,-0.6875 -0.35958,-103.85 -0.21862,-229.25 l 0.25631,-228 60,0 60,0 0.2557,84.90438 c 0.1828,60.7081 0.5739,85.28786 1.3724,86.25 0.8572,1.03281 5.0984,1.34206 18.2443,1.33031 9.4202,-0.008 17.6337,-0.34592 18.2522,-0.75 0.6185,-0.40408 27.1101,-38.75969 58.8701,-85.23469 31.76,-46.475 58.4524,-85.0625 59.3165,-85.75 1.995,-1.58727 144.7002,-1.84955 145.6778,-0.26774 0.3339,0.54025 -35.077,50.71536 -78.6909,111.50025 -43.614,60.78489 -79.436,111.37304 -79.6046,112.41813 -0.2005,1.24292 29.5992,41.79581 86.1567,117.24618 47.5548,63.44032 86.2536,115.68515 85.9975,116.09961 -0.2562,0.41446 -33.9264,0.75357 -74.8227,0.75357 l -74.3569,0 -2.8997,-3.75 c -1.5948,-2.0625 -30.4675,-42.5625 -64.1616,-90 l -61.2619,-86.25 -18.3154,0 c -15.7789,0 -18.3996,0.21907 -18.9225,1.58179 -0.3339,0.86998 -0.607,41.36998 -0.607,90 l 0,88.41821 -60.0314,0 c -47.1051,0 -60.13363,-0.26916 -60.50629,-1.25 z m 457.00119,0.003 c -0.2619,-0.68909 -0.3608,-103.853 -0.2198,-229.253 l 0.2563,-228 60,0 60,0 0.2528,174.90092 c 0.1834,126.86178 0.5592,175.27008 1.3683,176.24495 0.9168,1.1047 17.9657,1.38943 95.7471,1.59907 l 94.6318,0.25506 0,52.5 0,52.5 -155.7802,0.25314 c -124.0984,0.20165 -155.877,-0.002 -156.2563,-1 z m 1379.2032,0.58019 c -0.3667,-0.36666 -0.6736,-79.22916 -0.682,-175.25 -0.01,-96.02083 -0.3702,-175.14214 -0.804,-175.82512 -0.6101,-0.96076 -13.9025,-1.30023 -58.7346,-1.5 L 1576,414.00504 l 0,-52.5 0,-52.5 181.75,-0.2527 181.75,-0.25269 0,53.00269 0,53.0027 -61.3,0 c -46.3444,0 -61.5928,0.29277 -62.5,1.2 -0.9242,0.92421 -1.2,41.48889 -1.2,176.5 l 0,175.3 -59.8333,0 c -32.9084,0 -60.1334,-0.3 -60.5,-0.66667 z"
         id="path3006"
         inkscape:connector-curvature="0" />
    </g>
  </g>
</svg>
