<svg version="1" xmlns="http://www.w3.org/2000/svg" width="400" height="400" viewBox="0 0 300.000000 300.000000"><path d="M140.7 20.8c-.9.2-1.7 1.1-1.8 2 0 .9-.1 5.4-.2 9.9l-.2 8.3 4 .1c9.4.2 17.8 2.5 22.2 6.4l3.8 3.3v158.7l-2.4 9c-3.1 11.8-6.4 18.5-12 24.5-14.7 15.6-48 15.8-65.2.3-2.2-2-4.6-4.8-5.4-6.3-1.3-2.6-1.3-2.6 3.3-3.9 14.4-3.8 21.6-19 15.8-33.3-4.2-10.3-12.1-15.1-25.2-15.1-6.9-.1-9 .3-13.8 2.7-11.2 5.5-16.3 16.1-15.3 32 1.4 23.2 14.3 41.2 36.7 51.4 7.5 3.4 15.4 5.8 22.5 6.8 2.8.3 5.9.8 7 1.1 3 .6 26.4.5 31-.2 4.3-.6 9.4-1.4 13.5-2.2 5.5-1 17.9-5.6 23.8-8.9 17.7-9.9 29.4-25.3 35-46.4 1.1-4.1 2-8.2 2-9 0-.8.3-3.1.7-5 .4-1.9.9-37.3 1-78.5.1-51.1.5-75.8 1.3-77.6 2.2-5.5 13.5-9.7 26-9.9h3.2V21l-3.7-.1c-14.5-.2-106.3-.3-107.6-.1z"/></svg>